<mxfile host="app.diagrams.net" modified="2024-05-22T11:38:01.405Z" agent="Mozilla/5.0 (Macintosh; Intel Mac OS X 10_15_7) AppleWebKit/605.1.15 (KHTML, like Gecko) Version/17.2 Safari/605.1.15" etag="DiumGpMyo_mjwFHzr8z9" version="24.4.5" type="device">
  <diagram name="Page-1" id="BspDv19mUpPSZkJMWvH-">
    <mxGraphModel dx="1026" dy="720" grid="1" gridSize="10" guides="1" tooltips="1" connect="1" arrows="1" fold="1" page="1" pageScale="1" pageWidth="827" pageHeight="1169" math="0" shadow="0">
      <root>
        <mxCell id="0" />
        <mxCell id="1" parent="0" />
        <mxCell id="Djiv5of94bYx_WdSL2M7-2" value="Application" style="swimlane;fontStyle=0;childLayout=stackLayout;horizontal=1;startSize=26;fillColor=none;horizontalStack=0;resizeParent=1;resizeParentMax=0;resizeLast=0;collapsible=1;marginBottom=0;whiteSpace=wrap;html=1;" vertex="1" parent="1">
          <mxGeometry x="280" y="200" width="140" height="130" as="geometry" />
        </mxCell>
        <mxCell id="Djiv5of94bYx_WdSL2M7-3" value="scheduler" style="text;strokeColor=none;fillColor=none;align=left;verticalAlign=top;spacingLeft=4;spacingRight=4;overflow=hidden;rotatable=0;points=[[0,0.5],[1,0.5]];portConstraint=eastwest;whiteSpace=wrap;html=1;" vertex="1" parent="Djiv5of94bYx_WdSL2M7-2">
          <mxGeometry y="26" width="140" height="26" as="geometry" />
        </mxCell>
        <mxCell id="Djiv5of94bYx_WdSL2M7-4" value="server" style="text;strokeColor=none;fillColor=none;align=left;verticalAlign=top;spacingLeft=4;spacingRight=4;overflow=hidden;rotatable=0;points=[[0,0.5],[1,0.5]];portConstraint=eastwest;whiteSpace=wrap;html=1;" vertex="1" parent="Djiv5of94bYx_WdSL2M7-2">
          <mxGeometry y="52" width="140" height="26" as="geometry" />
        </mxCell>
        <mxCell id="Djiv5of94bYx_WdSL2M7-5" value="context" style="text;strokeColor=none;fillColor=none;align=left;verticalAlign=top;spacingLeft=4;spacingRight=4;overflow=hidden;rotatable=0;points=[[0,0.5],[1,0.5]];portConstraint=eastwest;whiteSpace=wrap;html=1;" vertex="1" parent="Djiv5of94bYx_WdSL2M7-2">
          <mxGeometry y="78" width="140" height="26" as="geometry" />
        </mxCell>
        <mxCell id="Djiv5of94bYx_WdSL2M7-18" value="services" style="text;strokeColor=none;fillColor=none;align=left;verticalAlign=top;spacingLeft=4;spacingRight=4;overflow=hidden;rotatable=0;points=[[0,0.5],[1,0.5]];portConstraint=eastwest;whiteSpace=wrap;html=1;" vertex="1" parent="Djiv5of94bYx_WdSL2M7-2">
          <mxGeometry y="104" width="140" height="26" as="geometry" />
        </mxCell>
        <mxCell id="Djiv5of94bYx_WdSL2M7-6" value="Scheduler" style="html=1;whiteSpace=wrap;" vertex="1" parent="1">
          <mxGeometry x="70" y="214" width="110" height="50" as="geometry" />
        </mxCell>
        <mxCell id="Djiv5of94bYx_WdSL2M7-7" value="Server" style="html=1;whiteSpace=wrap;" vertex="1" parent="1">
          <mxGeometry x="70" y="278" width="110" height="50" as="geometry" />
        </mxCell>
        <mxCell id="Djiv5of94bYx_WdSL2M7-9" value="Service" style="swimlane;fontStyle=0;childLayout=stackLayout;horizontal=1;startSize=26;fillColor=none;horizontalStack=0;resizeParent=1;resizeParentMax=0;resizeLast=0;collapsible=1;marginBottom=0;whiteSpace=wrap;html=1;" vertex="1" parent="1">
          <mxGeometry x="280" y="400" width="140" height="52" as="geometry" />
        </mxCell>
        <mxCell id="Djiv5of94bYx_WdSL2M7-10" value="app" style="text;strokeColor=none;fillColor=none;align=left;verticalAlign=top;spacingLeft=4;spacingRight=4;overflow=hidden;rotatable=0;points=[[0,0.5],[1,0.5]];portConstraint=eastwest;whiteSpace=wrap;html=1;" vertex="1" parent="Djiv5of94bYx_WdSL2M7-9">
          <mxGeometry y="26" width="140" height="26" as="geometry" />
        </mxCell>
        <mxCell id="Djiv5of94bYx_WdSL2M7-13" style="edgeStyle=orthogonalEdgeStyle;rounded=0;orthogonalLoop=1;jettySize=auto;html=1;exitX=0;exitY=0.5;exitDx=0;exitDy=0;entryX=1;entryY=0.5;entryDx=0;entryDy=0;" edge="1" parent="1" source="Djiv5of94bYx_WdSL2M7-3" target="Djiv5of94bYx_WdSL2M7-6">
          <mxGeometry relative="1" as="geometry" />
        </mxCell>
        <mxCell id="Djiv5of94bYx_WdSL2M7-14" style="edgeStyle=orthogonalEdgeStyle;rounded=0;orthogonalLoop=1;jettySize=auto;html=1;exitX=0;exitY=0.5;exitDx=0;exitDy=0;entryX=1;entryY=0.5;entryDx=0;entryDy=0;" edge="1" parent="1" source="Djiv5of94bYx_WdSL2M7-4" target="Djiv5of94bYx_WdSL2M7-7">
          <mxGeometry relative="1" as="geometry">
            <Array as="points">
              <mxPoint x="200" y="265" />
              <mxPoint x="200" y="303" />
            </Array>
          </mxGeometry>
        </mxCell>
        <mxCell id="Djiv5of94bYx_WdSL2M7-15" style="edgeStyle=orthogonalEdgeStyle;rounded=0;orthogonalLoop=1;jettySize=auto;html=1;exitX=1;exitY=0.5;exitDx=0;exitDy=0;entryX=1.007;entryY=0.125;entryDx=0;entryDy=0;entryPerimeter=0;" edge="1" parent="1" source="Djiv5of94bYx_WdSL2M7-10" target="Djiv5of94bYx_WdSL2M7-2">
          <mxGeometry relative="1" as="geometry" />
        </mxCell>
        <mxCell id="Djiv5of94bYx_WdSL2M7-16" value="Context Variable" style="html=1;whiteSpace=wrap;" vertex="1" parent="1">
          <mxGeometry x="70" y="340" width="110" height="50" as="geometry" />
        </mxCell>
        <mxCell id="Djiv5of94bYx_WdSL2M7-17" style="edgeStyle=orthogonalEdgeStyle;rounded=0;orthogonalLoop=1;jettySize=auto;html=1;exitX=0;exitY=0.5;exitDx=0;exitDy=0;entryX=1;entryY=0.5;entryDx=0;entryDy=0;" edge="1" parent="1" source="Djiv5of94bYx_WdSL2M7-5" target="Djiv5of94bYx_WdSL2M7-16">
          <mxGeometry relative="1" as="geometry">
            <Array as="points">
              <mxPoint x="220" y="291" />
              <mxPoint x="220" y="365" />
            </Array>
          </mxGeometry>
        </mxCell>
        <mxCell id="Djiv5of94bYx_WdSL2M7-19" style="edgeStyle=orthogonalEdgeStyle;rounded=0;orthogonalLoop=1;jettySize=auto;html=1;exitX=0;exitY=0.5;exitDx=0;exitDy=0;entryX=0;entryY=0.5;entryDx=0;entryDy=0;" edge="1" parent="1" source="Djiv5of94bYx_WdSL2M7-18" target="Djiv5of94bYx_WdSL2M7-10">
          <mxGeometry relative="1" as="geometry" />
        </mxCell>
      </root>
    </mxGraphModel>
  </diagram>
</mxfile>
